<?xml version="1.0" encoding="UTF-8"?>
<svg id="Layer_2" data-name="Layer 2" xmlns="http://www.w3.org/2000/svg" viewBox="0 0 500 95.04">
  <defs>
    <style>
      .cls-1 {
        stroke-width: 0px;
      }
    </style>
  </defs>
  <g id="Layer_1-2" data-name="Layer 1">
    <g>
      <g>
        <path class="cls-1" d="m156.68,64.97c2.18,0,3.97-.18,5.39-.54,1.42-.36,2.55-.86,3.41-1.48.86-.63,1.45-1.37,1.78-2.23.33-.86.49-1.81.49-2.87,0-2.24-1.05-4.1-3.16-5.59-2.11-1.48-5.74-3.08-10.88-4.8-2.24-.79-4.48-1.7-6.73-2.72-2.24-1.02-4.25-2.31-6.03-3.86-1.78-1.55-3.23-3.43-4.35-5.64-1.12-2.21-1.68-4.9-1.68-8.06s.59-6.02,1.78-8.55c1.19-2.54,2.87-4.7,5.04-6.48s4.81-3.15,7.91-4.1c3.1-.96,6.59-1.43,10.48-1.43,4.61,0,8.6.49,11.97,1.48,3.36.99,6.13,2.08,8.31,3.26l-4.45,12.16c-1.91-.99-4.04-1.86-6.38-2.62-2.34-.76-5.16-1.14-8.45-1.14-3.69,0-6.35.51-7.96,1.53-1.62,1.02-2.42,2.59-2.42,4.7,0,1.25.3,2.31.89,3.16.59.86,1.43,1.63,2.52,2.32s2.34,1.32,3.76,1.88c1.42.56,2.98,1.14,4.7,1.73,3.56,1.32,6.66,2.62,9.3,3.91,2.64,1.29,4.83,2.79,6.58,4.5,1.75,1.71,3.05,3.73,3.91,6.03.86,2.31,1.29,5.11,1.29,8.41,0,6.4-2.24,11.36-6.73,14.88-4.48,3.53-11.24,5.29-20.27,5.29-3.03,0-5.77-.18-8.21-.54-2.44-.36-4.6-.81-6.48-1.33-1.88-.53-3.49-1.09-4.85-1.68-1.35-.59-2.49-1.15-3.41-1.68l4.35-12.26c2.04,1.12,4.56,2.13,7.57,3.02,3,.89,6.68,1.34,11.03,1.34Z"/>
        <path class="cls-1" d="m204.26,43.4c1.45-1.57,2.95-3.21,4.5-4.92,1.55-1.7,3.04-3.39,4.49-5.06,1.45-1.67,2.82-3.26,4.1-4.77,1.28-1.51,2.39-2.82,3.31-3.93h17.52c-3.5,4.01-6.91,7.85-10.24,11.5-3.33,3.65-6.97,7.42-10.93,11.3,1.98,1.78,4.02,3.91,6.13,6.39,2.11,2.48,4.15,5.04,6.13,7.68,1.98,2.64,3.79,5.28,5.44,7.92,1.65,2.64,3.03,5.05,4.15,7.23h-16.94c-1.05-1.72-2.25-3.62-3.6-5.7-1.35-2.08-2.78-4.16-4.29-6.24-1.51-2.08-3.11-4.08-4.79-6s-3.34-3.54-4.99-4.86v22.8h-14.73V2.37L204.26,0v43.4Z"/>
        <path class="cls-1" d="m293.95,24.72c-2.98,10.02-6.08,19.42-9.32,28.19-3.24,8.77-6.78,17.27-10.61,25.52-1.39,2.97-2.77,5.49-4.16,7.57-1.39,2.08-2.91,3.79-4.56,5.14-1.65,1.35-3.52,2.34-5.6,2.97-2.08.63-4.51.94-7.28.94-2.31,0-4.44-.21-6.39-.64-1.95-.43-3.55-.91-4.8-1.43l2.57-11.77c1.52.53,2.87.89,4.06,1.09,1.19.2,2.44.3,3.76.3,2.64,0,4.66-.71,6.08-2.13,1.42-1.42,2.62-3.38,3.61-5.88-3.37-6.59-6.73-13.99-10.09-22.2-3.36-8.21-6.53-17.42-9.5-27.64h15.63c.66,2.57,1.44,5.36,2.34,8.36.89,3,1.84,6.03,2.83,9.1s2,6.05,3.03,8.95c1.03,2.9,2.01,5.54,2.93,7.91.86-2.37,1.75-5.01,2.68-7.91.93-2.9,1.84-5.88,2.73-8.95s1.75-6.1,2.58-9.1c.83-3,1.57-5.79,2.23-8.36h15.24Z"/>
        <path class="cls-1" d="m317.28,76.74c-3.37-6.59-6.8-14.31-10.27-23.14-3.47-8.83-6.77-18.46-9.88-28.88h15.63c.66,2.57,1.44,5.36,2.34,8.36.89,3,1.82,6.03,2.78,9.1.96,3.07,1.92,6.05,2.88,8.95.96,2.9,1.9,5.54,2.83,7.91.86-2.37,1.79-5.01,2.78-7.91.99-2.9,1.97-5.88,2.93-8.95.96-3.07,1.89-6.1,2.78-9.1.89-3,1.67-5.79,2.33-8.36h15.24c-3.11,10.42-6.4,20.04-9.87,28.88-3.47,8.84-6.89,16.55-10.27,23.14h-12.23Z"/>
        <path class="cls-1" d="m370.88,9.69c0,2.7-.87,4.83-2.62,6.38-1.75,1.55-3.81,2.32-6.18,2.32s-4.43-.77-6.18-2.32c-1.75-1.55-2.62-3.67-2.62-6.38s.87-4.83,2.62-6.38c1.75-1.55,3.81-2.32,6.18-2.32s4.43.78,6.18,2.32c1.75,1.55,2.62,3.68,2.62,6.38Zm-1.39,67.05h-14.73V24.72h14.73v52.02Z"/>
        <path class="cls-1" d="m374.77,51.13c0-4.61.71-8.65,2.13-12.11,1.42-3.46,3.28-6.35,5.59-8.65,2.31-2.31,4.96-4.05,7.96-5.24,3-1.19,6.08-1.78,9.25-1.78,7.38,0,13.22,2.26,17.5,6.77,4.29,4.52,6.43,11.16,6.43,19.93,0,.86-.03,1.8-.1,2.82-.07,1.02-.13,1.93-.2,2.72h-33.43c.33,3.03,1.75,5.44,4.25,7.22,2.51,1.78,5.87,2.67,10.09,2.67,2.7,0,5.36-.25,7.96-.74,2.6-.49,4.73-1.1,6.38-1.83l1.98,11.97c-.79.4-1.85.79-3.16,1.19-1.32.4-2.79.74-4.4,1.04-1.62.3-3.35.54-5.19.74-1.85.2-3.69.3-5.54.3-4.68,0-8.75-.69-12.21-2.08-3.46-1.38-6.33-3.28-8.6-5.69-2.27-2.41-3.96-5.26-5.04-8.55-1.09-3.3-1.63-6.86-1.63-10.68Zm34.61-5.64c-.07-1.25-.28-2.47-.64-3.66-.36-1.19-.92-2.24-1.68-3.16-.76-.92-1.72-1.68-2.87-2.27-1.15-.59-2.59-.89-4.3-.89s-3.07.28-4.25.84c-1.19.56-2.18,1.3-2.97,2.23-.79.92-1.4,1.99-1.83,3.21-.43,1.22-.74,2.46-.94,3.71h19.48Z"/>
        <path class="cls-1" d="m461.98,46.88c-1.32,5.01-2.72,9.99-4.2,14.93-1.48,4.94-3.05,9.92-4.7,14.93h-11.47c-1.19-2.77-2.48-6.06-3.87-9.89-1.39-3.82-2.83-7.99-4.31-12.51-1.49-4.52-3.01-9.3-4.56-14.34-1.55-5.04-3.06-10.14-4.51-15.28h15.53c.53,2.37,1.11,4.96,1.74,7.76.63,2.8,1.29,5.69,1.99,8.65.7,2.97,1.43,5.95,2.19,8.95.76,3,1.54,5.88,2.34,8.65.86-2.9,1.7-5.87,2.52-8.9.82-3.03,1.61-6.02,2.37-8.95.76-2.93,1.48-5.77,2.18-8.5.69-2.74,1.3-5.29,1.83-7.66h10.68c.53,2.37,1.12,4.93,1.78,7.66.66,2.74,1.35,5.57,2.08,8.5.73,2.93,1.48,5.92,2.27,8.95.79,3.03,1.61,6,2.47,8.9.8-2.77,1.59-5.65,2.39-8.65.8-3,1.54-5.98,2.24-8.95s1.36-5.85,1.99-8.65c.63-2.8,1.21-5.39,1.74-7.76h15.33c-1.46,5.14-2.96,10.24-4.51,15.28s-3.07,9.82-4.56,14.34c-1.49,4.52-2.94,8.69-4.36,12.51-1.42,3.82-2.73,7.12-3.92,9.89h-11.47c-1.65-5.01-3.26-9.99-4.84-14.93-1.58-4.94-3.03-9.92-4.35-14.93Z"/>
      </g>
      <path class="cls-1" d="m19.58,39.16C19.58,17.53,37.11,0,58.74,0c14.7,0,27.49,8.1,34.19,20.07,1.74-.32,3.53-.5,5.36-.5,16.22,0,29.37,13.15,29.37,29.37,0,16.22-13.15,29.37-29.37,29.37-.13,0-.26,0-.39,0h0s-78.31,0-78.31,0c-10.81,0-19.58-8.77-19.58-19.58s8.77-19.58,19.58-19.58Z"/>
    </g>
  </g>
</svg>